<svg width="25" height="24" viewBox="0 0 25 24" fill="none" xmlns="http://www.w3.org/2000/svg">
<g id="solar:code-bold-duotone">
<g id="Group">
<path id="Vector" d="M16.9422 7.32694C17.0081 7.2536 17.0878 7.19396 17.1768 7.15145C17.2657 7.10893 17.3622 7.08437 17.4606 7.07917C17.5591 7.07397 17.6576 7.08823 17.7505 7.12113C17.8435 7.15404 17.929 7.20495 18.0022 7.27094L19.7392 8.83494C20.4762 9.49794 21.0862 10.0469 21.5062 10.5449C21.9462 11.0699 22.2602 11.6329 22.2602 12.3289C22.2602 13.0239 21.9472 13.5869 21.5062 14.1109C21.0862 14.6099 20.4762 15.1599 19.7392 15.8219L18.0022 17.3859C17.8544 17.5191 17.6597 17.588 17.461 17.5776C17.2623 17.5672 17.0759 17.4783 16.9427 17.3304C16.8096 17.1826 16.7406 16.9879 16.7511 16.7892C16.7615 16.5905 16.8504 16.4041 16.9982 16.2709L18.6952 14.7439C19.4832 14.0349 20.0142 13.5539 20.3582 13.1459C20.6882 12.7529 20.7602 12.5239 20.7602 12.3289C20.7602 12.1329 20.6882 11.9039 20.3582 11.5109C20.0142 11.1019 19.4832 10.6219 18.6952 9.91294L16.9982 8.38594C16.9249 8.32006 16.8653 8.24037 16.8227 8.15141C16.7802 8.06246 16.7557 7.966 16.7505 7.86755C16.7453 7.7691 16.7595 7.67059 16.7924 7.57766C16.8253 7.48472 16.8762 7.40018 16.9422 7.32694ZM8.00223 8.38594C8.15009 8.2528 8.23901 8.06638 8.24941 7.86769C8.25982 7.66899 8.19087 7.4743 8.05773 7.32644C7.9246 7.17858 7.73817 7.08967 7.53948 7.07926C7.34078 7.06885 7.14609 7.1378 6.99823 7.27094L5.26123 8.83494C4.52423 9.49794 3.91423 10.0469 3.49423 10.5449C3.05423 11.0699 2.74023 11.6329 2.74023 12.3289C2.74023 13.0239 3.05323 13.5869 3.49423 14.1109C3.91423 14.6099 4.52423 15.1599 5.26123 15.8219L6.99823 17.3859C7.07145 17.4519 7.15693 17.5027 7.24979 17.5356C7.34266 17.5685 7.4411 17.5828 7.53948 17.5776C7.63786 17.5725 7.73427 17.548 7.82319 17.5056C7.91211 17.4632 7.99181 17.4037 8.05773 17.3304C8.12366 17.2572 8.17452 17.1718 8.2074 17.0789C8.24029 16.986 8.25457 16.8876 8.24941 16.7892C8.24426 16.6908 8.21978 16.5944 8.17737 16.5055C8.13496 16.4166 8.07545 16.3369 8.00223 16.2709L6.30523 14.7439C5.51723 14.0349 4.98623 13.5539 4.64223 13.1459C4.31223 12.7529 4.24023 12.5239 4.24023 12.3289C4.24023 12.1329 4.31223 11.9039 4.64223 11.5109C4.98623 11.1019 5.51723 10.6219 6.30523 9.91294L8.00223 8.38594Z" fill="black"/>
<path id="Vector_2" opacity="0.5" d="M14.6823 4.27669C14.8743 4.32825 15.0379 4.45389 15.1373 4.62602C15.2367 4.79814 15.2637 5.00268 15.2123 5.19469L11.2383 20.0247C11.2128 20.1198 11.1688 20.209 11.1087 20.2871C11.0487 20.3653 10.9739 20.4308 10.8886 20.48C10.7162 20.5794 10.5115 20.6063 10.3193 20.5547C10.1272 20.5031 9.96339 20.3773 9.864 20.205C9.7646 20.0326 9.73774 19.8278 9.78933 19.6357L13.7633 4.80569C13.7889 4.71053 13.8329 4.62134 13.8929 4.54321C13.9529 4.46507 14.0277 4.39952 14.113 4.3503C14.1984 4.30108 14.2926 4.26916 14.3903 4.25636C14.4879 4.24356 14.5872 4.25113 14.6823 4.27669Z" fill="black"/>
</g>
</g>
</svg>
