<svg width="25" height="25" viewBox="0 0 25 25" fill="none" xmlns="http://www.w3.org/2000/svg">
<g id="Icon/Outline/collection">
<path id="Icon" d="M19.5 11.5H5.5M19.5 11.5C20.6046 11.5 21.5 12.3954 21.5 13.5V19.5C21.5 20.6046 20.6046 21.5 19.5 21.5H5.5C4.39543 21.5 3.5 20.6046 3.5 19.5V13.5C3.5 12.3954 4.39543 11.5 5.5 11.5M19.5 11.5V9.5C19.5 8.39543 18.6046 7.5 17.5 7.5M5.5 11.5V9.5C5.5 8.39543 6.39543 7.5 7.5 7.5M7.5 7.5V5.5C7.5 4.39543 8.39543 3.5 9.5 3.5H15.5C16.6046 3.5 17.5 4.39543 17.5 5.5V7.5M7.5 7.5H17.5" stroke="black" stroke-width="2" stroke-linecap="round" stroke-linejoin="round"/>
</g>
</svg>
