<svg width="25" height="24" viewBox="0 0 25 24" fill="none" xmlns="http://www.w3.org/2000/svg">
<g id="solar:health-line-duotone">
<g id="Group">
<path id="Vector" opacity="0.5" d="M12.5 5.57258L11.952 6.08458C12.0222 6.15967 12.107 6.21954 12.2013 6.26047C12.2956 6.3014 12.3972 6.32253 12.5 6.32253C12.6028 6.32253 12.7044 6.3014 12.7987 6.26047C12.893 6.21954 12.9778 6.15967 13.048 6.08458L12.5 5.57258ZM9.934 18.7946C8.484 17.6186 6.792 16.0756 5.468 14.3866C4.129 12.6796 3.25 10.9266 3.25 9.31658H1.75C1.75 11.4336 2.88 13.5186 4.287 15.3126C5.709 17.1256 7.497 18.7486 8.989 19.9596L9.934 18.7946ZM3.25 9.31658C3.25 6.41158 4.518 4.61658 6.086 4.00158C7.651 3.38858 9.84 3.82658 11.952 6.08458L13.048 5.06058C10.66 2.50658 7.849 1.70058 5.539 2.60458C3.232 3.50858 1.75 5.99058 1.75 9.31658H3.25ZM16.01 19.9586C17.503 18.7476 19.291 17.1246 20.713 15.3116C22.12 13.5176 23.25 11.4326 23.25 9.31458H21.75C21.75 10.9266 20.87 12.6786 19.532 14.3856C18.208 16.0746 16.516 17.6176 15.066 18.7936L16.01 19.9586ZM23.25 9.31458C23.25 5.98958 21.768 3.50758 19.46 2.60458C17.15 1.69958 14.34 2.50458 11.952 5.05958L13.048 6.08458C15.16 3.82658 17.349 3.38758 18.914 4.00058C20.482 4.61458 21.75 6.41058 21.75 9.31458H23.25ZM8.989 19.9596C10.259 20.9916 11.142 21.7486 12.5 21.7486V20.2486C11.777 20.2486 11.327 19.9246 9.934 18.7946L8.989 19.9596ZM15.066 18.7936C13.673 19.9236 13.223 20.2486 12.5 20.2486V21.7486C13.858 21.7486 14.741 20.9916 16.011 19.9596L15.066 18.7936Z" fill="black"/>
<path id="Vector_2" d="M19 9H17M17 9H15M17 9V7M17 9V11" stroke="black" stroke-width="1.5" stroke-linecap="round"/>
</g>
</g>
</svg>
