<svg width="25" height="24" viewBox="0 0 25 24" fill="none" xmlns="http://www.w3.org/2000/svg">
<g id="mingcute:music-3-line" clip-path="url(#clip0_2810_105058)">
<g id="Group">
<path id="Vector" d="M11.475 3.00272C11.5335 3.2613 11.487 3.53255 11.3456 3.75682C11.2042 3.9811 10.9795 4.14005 10.721 4.19872C9.05813 4.57787 7.55995 5.47854 6.44511 6.76928C5.33027 8.06003 4.65711 9.67328 4.52388 11.3736C4.39066 13.074 4.80433 14.7724 5.70453 16.221C6.60473 17.6696 7.94434 18.7927 9.52786 19.4262C11.1114 20.0597 12.8559 20.1706 14.5069 19.7426C16.1579 19.3146 17.6289 18.3702 18.7052 17.0472C19.7815 15.7241 20.4069 14.0917 20.4899 12.3882C20.573 10.6847 20.1095 8.9992 19.167 7.57772C19.0943 7.46833 19.0439 7.3457 19.0186 7.21681C18.9933 7.08793 18.9936 6.95534 19.0196 6.82659C19.072 6.56657 19.2256 6.33802 19.4465 6.19122C19.6674 6.04443 19.9376 5.9914 20.1976 6.04382C20.3264 6.06977 20.4488 6.12083 20.5578 6.19408C20.6668 6.26733 20.7603 6.36133 20.833 6.47072C21.9228 8.10889 22.5029 10.0332 22.5 12.0007C22.5 17.5237 18.023 22.0007 12.5 22.0007C6.977 22.0007 2.5 17.5237 2.5 12.0007C2.5 7.24072 5.825 3.25872 10.279 2.24872C10.5376 2.19018 10.8088 2.23673 11.0331 2.37812C11.2574 2.51951 11.4163 2.74417 11.475 3.00272ZM13.5 3.01472C13.4999 2.86471 13.5332 2.71656 13.5975 2.58102C13.6618 2.44549 13.7554 2.32598 13.8717 2.23118C13.9879 2.13637 14.1239 2.06865 14.2696 2.03294C14.4153 1.99723 14.5671 1.99442 14.714 2.02472L14.829 2.05572L17.816 3.05172C18.0587 3.13192 18.2614 3.30198 18.3826 3.52699C18.5038 3.75199 18.5343 4.01486 18.4677 4.26162C18.4012 4.50837 18.2427 4.72028 18.0247 4.85383C17.8068 4.98738 17.5461 5.03242 17.296 4.97972L17.184 4.94972L15.5 4.38772V12.0007C15.4997 12.629 15.3022 13.2413 14.9353 13.7513C14.5684 14.2613 14.0506 14.6432 13.4551 14.8432C12.8595 15.0432 12.2162 15.0512 11.6158 14.8661C11.0155 14.6809 10.4884 14.3119 10.109 13.8112C9.72952 13.3105 9.51685 12.7033 9.50096 12.0752C9.48507 11.4471 9.66675 10.83 10.0204 10.3107C10.374 9.7914 10.8817 9.39624 11.472 9.18095C12.0622 8.96566 12.7051 8.94109 13.31 9.11072L13.5 9.17072V3.01572V3.01472Z" fill="#545454"/>
</g>
</g>
<defs>
<clipPath id="clip0_2810_105058">
<rect width="24" height="24" fill="white" transform="translate(0.5)"/>
</clipPath>
</defs>
</svg>
