<svg width="400" height="401" viewBox="0 0 400 401" fill="none" xmlns="http://www.w3.org/2000/svg">
<path opacity="0.495257" d="M82.5152 135.5C91.6847 143.771 131.789 156.271 135.419 166.615C135.664 167.313 100.375 241.338 95.7744 242.106C76.525 245.309 57.0225 230.012 38 224.589" stroke="black" stroke-opacity="0.9" stroke-width="16" stroke-linecap="round" stroke-linejoin="round"/>
<path opacity="0.495257" d="M346.543 130.689C325.727 136.69 335.709 133.557 316.567 139.996C306.441 143.406 285.914 149.376 277.369 155.122C273.876 157.473 278.841 163.073 279.673 165.596C283.817 178.13 295.565 249.904 299.275 250.53C318.52 253.768 343.743 237.897 361.531 231.911" stroke="black" stroke-opacity="0.9" stroke-width="16" stroke-linecap="round" stroke-linejoin="round"/>
<path d="M268.22 160.81C251.702 160.81 209.675 149.866 195.016 160.81C186.617 167.085 172.596 204.213 188.07 208.061C199.041 210.793 208.829 190.331 218.166 188.472C226.342 186.845 268.499 210.338 273.733 217.285" stroke="black" stroke-opacity="0.9" stroke-width="16" stroke-linecap="round" stroke-linejoin="round"/>
<path d="M273.731 220.893C273.957 234.666 256.781 253.926 253.78 256.881C248.737 261.862 241.585 267.197 217.205 270.204" stroke="black" stroke-opacity="0.9" stroke-width="16" stroke-linecap="round" stroke-linejoin="round"/>
<path d="M142.258 229.186C150.944 227.15 154.573 231.379 153.143 241.874C146.371 257.164 125.492 253.232 135.817 237.675" stroke="black" stroke-opacity="0.9" stroke-width="16" stroke-linecap="round" stroke-linejoin="round"/>
<path d="M175.336 234.92C183.472 233.403 184.492 239.85 178.397 254.262C172.721 268.837 158.074 262.2 161.062 246.645" stroke="black" stroke-opacity="0.9" stroke-width="16" stroke-linecap="round" stroke-linejoin="round"/>
<path d="M191.97 246.73C199.972 246.73 203.973 252.282 203.973 263.386C203.041 275.063 182.324 279.324 182.324 258.973" stroke="black" stroke-opacity="0.9" stroke-width="16" stroke-linecap="round" stroke-linejoin="round"/>
<path d="M184.731 177.746C176.394 177.693 167.123 175.007 156.464 175.2C145.804 175.392 139.376 176.994 129.406 178.798" stroke="black" stroke-opacity="0.9" stroke-width="16" stroke-linecap="round" stroke-linejoin="round"/>
<path d="M253 230.689C257.105 233.496 262.021 235.689 263 235.689" stroke="black" stroke-opacity="0.9" stroke-width="16" stroke-linecap="round" stroke-linejoin="round"/>
<path d="M242 247.689C246.724 251.698 249.931 253.703 251.622 253.703" stroke="black" stroke-opacity="0.9" stroke-width="16" stroke-linecap="round" stroke-linejoin="round"/>
<path d="M226 260.689C230.724 264.698 233.931 266.703 235.622 266.703" stroke="black" stroke-opacity="0.9" stroke-width="16" stroke-linecap="round" stroke-linejoin="round"/>
<path fill-rule="evenodd" clip-rule="evenodd" d="M128.204 237.731C114.813 235.326 106.271 234.123 102.58 234.123C98.888 234.123 107.429 235.326 128.204 237.731Z" stroke="black" stroke-opacity="0.9" stroke-width="16" stroke-linecap="round" stroke-linejoin="round"/>
</svg>
