<svg width="400" height="401" viewBox="0 0 400 401" fill="none" xmlns="http://www.w3.org/2000/svg">
<path d="M198.718 157.329C149.938 113.312 57.7108 137.584 72.9568 219.771C85.4251 287.001 173.632 274.184 203.336 229.343" stroke="black" stroke-opacity="0.9" stroke-width="16" stroke-linecap="round" stroke-linejoin="round"/>
<path d="M198.003 165.375C195.147 170.52 193.021 176.127 190.545 181.463" stroke="black" stroke-opacity="0.9" stroke-width="16" stroke-linecap="round" stroke-linejoin="round"/>
<path d="M189.125 182.611C174.911 171.121 153.127 164.779 135.479 171.121C69.4601 194.85 129.833 270.21 182.728 201.765" stroke="black" stroke-opacity="0.9" stroke-width="16" stroke-linecap="round" stroke-linejoin="round"/>
<path d="M187.345 204.448C192.587 210.67 198.204 216.544 204.399 221.684" stroke="black" stroke-opacity="0.9" stroke-width="16" stroke-linecap="round" stroke-linejoin="round"/>
<path d="M168.875 150.436C168.726 155.772 166.881 160.667 165.321 165.376" stroke="black" stroke-opacity="0.9" stroke-width="16" stroke-linecap="round" stroke-linejoin="round"/>
<path d="M168.161 228.195C172.527 232.632 175.404 238.44 178.107 243.9" stroke="black" stroke-opacity="0.9" stroke-width="16" stroke-linecap="round" stroke-linejoin="round"/>
<path opacity="0.503384" d="M220.593 206.836C242.373 125.49 251.505 208.891 257.207 206.836C268.449 202.791 265.389 158.592 281.177 169.968C289.525 175.976 285.614 206.12 294.782 207.774C305.621 209.726 311.514 119.37 328.56 209.906" stroke="black" stroke-opacity="0.9" stroke-width="16" stroke-linecap="round" stroke-linejoin="round"/>
</svg>
