<svg width="668" height="372" viewBox="0 0 668 372" fill="none" xmlns="http://www.w3.org/2000/svg">
<path fill-rule="evenodd" clip-rule="evenodd" d="M107 0C82.6995 0 63 19.6995 63 44V361.318H605.583V44C605.583 19.6995 585.884 0 561.583 0H107ZM102.012 25.1406C90.966 25.1406 82.0117 34.0949 82.0117 45.1406V310.231C82.0117 321.277 90.9661 330.231 102.012 330.231H566.458C577.504 330.231 586.458 321.277 586.458 310.231V45.1406C586.458 34.0949 577.504 25.1406 566.458 25.1406H102.012Z" fill="#1C1C1C"/>
<path d="M0 361.391H668V364.924C668 364.924 637.578 371.992 603.056 371.992C568.534 371.992 99.4664 371.639 64.9444 371.639C30.4225 371.639 0 364.924 0 364.924V361.391Z" fill="url(#paint0_linear_2767_104586)"/>
<path d="M0 363C0 361.895 0.895431 361 2 361H666C667.105 361 668 361.895 668 363V364.926H0V363Z" fill="url(#paint1_linear_2767_104586)"/>
<path d="M284.375 361H384.057C384.057 363.169 382.299 364.926 380.131 364.926H288.301C286.133 364.926 284.375 363.169 284.375 361Z" fill="url(#paint2_linear_2767_104586)"/>
<defs>
<linearGradient id="paint0_linear_2767_104586" x1="334" y1="361.391" x2="334" y2="371.992" gradientUnits="userSpaceOnUse">
<stop stop-color="#80868A"/>
<stop offset="1" stop-color="#2A2C2F"/>
</linearGradient>
<linearGradient id="paint1_linear_2767_104586" x1="1.40315e-06" y1="362.963" x2="668" y2="362.963" gradientUnits="userSpaceOnUse">
<stop stop-color="#2A2C2F"/>
<stop offset="0.208333" stop-color="#80868A"/>
<stop offset="0.770833" stop-color="#80868A"/>
<stop offset="1" stop-color="#2A2C2F"/>
</linearGradient>
<linearGradient id="paint2_linear_2767_104586" x1="284.375" y1="362.963" x2="384.057" y2="362.963" gradientUnits="userSpaceOnUse">
<stop stop-color="#2A2C2F"/>
<stop offset="0.229167" stop-color="#80868A"/>
<stop offset="0.802083" stop-color="#80868A"/>
<stop offset="1" stop-color="#2A2C2F"/>
</linearGradient>
</defs>
</svg>
