<svg width="187" height="48" viewBox="0 0 187 48" fill="none" xmlns="http://www.w3.org/2000/svg">
<g clip-path="url(#clip0_1768_84272)">
<path d="M37.5849 0.835938H12.4151C6.663 0.835938 2 5.49893 2 11.251V36.4208C2 42.1729 6.663 46.8359 12.4151 46.8359H37.5849C43.337 46.8359 48 42.1729 48 36.4208V11.251C48 5.49893 43.337 0.835938 37.5849 0.835938Z" fill="black"/>
<path d="M26.5702 18.4338C26.4715 17.4393 26.0483 16.6668 25.3004 16.1161C24.5524 15.5654 23.5374 15.2901 22.2552 15.2901C21.384 15.2901 20.6484 15.4133 20.0484 15.6599C19.4484 15.8983 18.9882 16.2312 18.6676 16.6585C18.3553 17.0859 18.1991 17.5708 18.1991 18.1133C18.1827 18.5653 18.2773 18.9599 18.4827 19.2968C18.6964 19.6338 18.9882 19.9256 19.358 20.1721C19.7279 20.4105 20.1553 20.6201 20.6402 20.8009C21.1251 20.9735 21.6429 21.1214 22.1936 21.2447L24.462 21.7872C25.5633 22.0337 26.5743 22.3625 27.4948 22.7734C28.4153 23.1844 29.2126 23.6899 29.8866 24.2899C30.5605 24.8898 31.0824 25.5967 31.4523 26.4103C31.8303 27.224 32.0235 28.1569 32.0317 29.2089C32.0235 30.7541 31.629 32.0938 30.8482 33.228C30.0756 34.354 28.9578 35.2293 27.4948 35.854C26.0401 36.4704 24.2853 36.7786 22.2306 36.7786C20.1922 36.7786 18.4169 36.4663 16.9047 35.8416C15.4006 35.217 14.2253 34.2924 13.3787 33.0677C12.5404 31.8349 12.1007 30.3103 12.0596 28.4939H17.2252C17.2827 29.3404 17.5252 30.0473 17.9526 30.6144C18.3882 31.1733 18.9676 31.5965 19.6909 31.8842C20.4224 32.1636 21.2484 32.3034 22.1689 32.3034C23.073 32.3034 23.8579 32.1718 24.5237 31.9089C25.1976 31.6458 25.7195 31.2801 26.0894 30.8116C26.4592 30.3431 26.6442 29.8048 26.6442 29.1966C26.6442 28.6295 26.4757 28.1528 26.1387 27.7665C25.8099 27.3802 25.325 27.0514 24.6839 26.7802C24.0511 26.509 23.2744 26.2624 22.3538 26.0405L19.6046 25.3501C17.4759 24.8323 15.7951 24.0227 14.5623 22.9214C13.3294 21.8201 12.7171 20.3365 12.7253 18.4708C12.7171 16.9421 13.1239 15.6065 13.9458 14.4641C14.776 13.3216 15.9143 12.4299 17.3608 11.7888C18.8074 11.1477 20.4511 10.8271 22.2922 10.8271C24.1661 10.8271 25.8017 11.1477 27.199 11.7888C28.6044 12.4299 29.6975 13.3216 30.4783 14.4641C31.2591 15.6065 31.6619 16.9297 31.6865 18.4338H26.5702ZM38.5241 36.7416C37.7104 36.7416 37.0118 36.454 36.4282 35.8786C35.8529 35.2951 35.5653 34.5965 35.5653 33.7828C35.5653 32.9773 35.8529 32.2869 36.4282 31.7116C37.0118 31.1363 37.7104 30.8486 38.5241 30.8486C39.3131 30.8486 40.0035 31.1363 40.5953 31.7116C41.187 32.2869 41.4829 32.9773 41.4829 33.7828C41.4829 34.3253 41.3432 34.8225 41.0638 35.2745C40.7926 35.7184 40.435 36.0759 39.9912 36.3471C39.5473 36.6101 39.0583 36.7416 38.5241 36.7416Z" fill="white"/>
</g>
<path d="M74.9858 19.9013C74.9176 19.2138 74.625 18.6797 74.108 18.299C73.5909 17.9183 72.8892 17.728 72.0028 17.728C71.4006 17.728 70.892 17.8132 70.4773 17.9837C70.0625 18.1484 69.7443 18.3786 69.5227 18.674C69.3068 18.9695 69.1989 19.3047 69.1989 19.6797C69.1875 19.9922 69.2528 20.2649 69.3949 20.4979C69.5426 20.7308 69.7443 20.9325 70 21.103C70.2557 21.2678 70.5511 21.4126 70.8864 21.5376C71.2216 21.657 71.5795 21.7592 71.9602 21.8445L73.5284 22.2195C74.2898 22.3899 74.9886 22.6172 75.625 22.9013C76.2614 23.1854 76.8125 23.5348 77.2784 23.9496C77.7443 24.3643 78.1051 24.853 78.3608 25.4155C78.6222 25.978 78.7557 26.6229 78.7614 27.3501C78.7557 28.4183 78.483 29.3445 77.9432 30.1286C77.4091 30.907 76.6364 31.5121 75.625 31.9439C74.6193 32.37 73.4063 32.5831 71.9858 32.5831C70.5767 32.5831 69.3494 32.3672 68.304 31.9354C67.2642 31.5036 66.4517 30.8643 65.8665 30.0178C65.2869 29.1655 64.983 28.1115 64.9545 26.8558H68.5256C68.5653 27.4411 68.733 27.9297 69.0284 28.3217C69.3295 28.7081 69.7301 29.0007 70.2301 29.1996C70.7358 29.3928 71.3068 29.4893 71.9432 29.4893C72.5682 29.4893 73.1108 29.3984 73.571 29.2166C74.0369 29.0348 74.3977 28.782 74.6534 28.4581C74.9091 28.1342 75.0369 27.7621 75.0369 27.3416C75.0369 26.9496 74.9205 26.62 74.6875 26.353C74.4602 26.0859 74.125 25.8587 73.6818 25.6712C73.2443 25.4837 72.7074 25.3132 72.071 25.1598L70.1705 24.6825C68.6989 24.3246 67.5369 23.7649 66.6847 23.0036C65.8324 22.2422 65.4091 21.2166 65.4148 19.9268C65.4091 18.87 65.6903 17.9467 66.2585 17.157C66.8324 16.3672 67.6193 15.7507 68.6193 15.3075C69.6193 14.8643 70.7557 14.6428 72.0284 14.6428C73.3239 14.6428 74.4545 14.8643 75.4205 15.3075C76.392 15.7507 77.1477 16.3672 77.6875 17.157C78.2273 17.9467 78.5057 18.8615 78.5227 19.9013H74.9858ZM80.5788 17.924V14.8814H94.9141V17.924H89.5703V32.3359H85.9226V17.924H80.5788ZM96.2521 14.8814H100.386L104.366 22.3984H104.536L108.516 14.8814H112.65L106.283 26.1655V32.3359H102.619V26.1655L96.2521 14.8814ZM114.665 32.3359V14.8814H118.356V29.2933H125.839V32.3359H114.665ZM128.283 32.3359V14.8814H140.044V17.924H131.973V22.0831H139.439V25.1257H131.973V29.2933H140.078V32.3359H128.283ZM153.759 14.8814H157.45V26.2166C157.45 27.4893 157.146 28.603 156.538 29.5575C155.935 30.5121 155.092 31.2564 154.006 31.7905C152.921 32.3189 151.657 32.5831 150.214 32.5831C148.765 32.5831 147.498 32.3189 146.413 31.7905C145.327 31.2564 144.484 30.5121 143.881 29.5575C143.279 28.603 142.978 27.4893 142.978 26.2166V14.8814H146.668V25.9013C146.668 26.5661 146.813 27.157 147.103 27.674C147.398 28.1911 147.813 28.5973 148.347 28.8928C148.881 29.1882 149.504 29.3359 150.214 29.3359C150.93 29.3359 151.552 29.1882 152.08 28.8928C152.614 28.5973 153.026 28.1911 153.316 27.674C153.612 27.157 153.759 26.5661 153.759 25.9013V14.8814ZM160.486 32.3359V14.8814H167.372C168.696 14.8814 169.824 15.1342 170.756 15.6399C171.688 16.1399 172.398 16.8359 172.886 17.728C173.381 18.6143 173.628 19.6371 173.628 20.7962C173.628 21.9553 173.378 22.978 172.878 23.8643C172.378 24.7507 171.653 25.4411 170.705 25.9354C169.761 26.4297 168.619 26.6768 167.278 26.6768H162.889V23.7195H166.682C167.392 23.7195 167.977 23.5973 168.438 23.353C168.903 23.103 169.25 22.7592 169.477 22.3217C169.71 21.8786 169.827 21.37 169.827 20.7962C169.827 20.2166 169.71 19.7109 169.477 19.2791C169.25 18.8416 168.903 18.5036 168.438 18.2649C167.972 18.0206 167.381 17.8984 166.665 17.8984H164.176V32.3359H160.486Z" fill="black"/>
<defs>
<clipPath id="clip0_1768_84272">
<rect width="46" height="46" fill="white" transform="translate(2 0.835938)"/>
</clipPath>
</defs>
</svg>
