<svg width="38" height="34" viewBox="0 0 38 34" fill="none" xmlns="http://www.w3.org/2000/svg">
<path d="M19.1406 10.2031C19.0156 8.94271 18.4792 7.96354 17.5313 7.26562C16.5833 6.56771 15.2969 6.21875 13.6719 6.21875C12.5677 6.21875 11.6354 6.375 10.875 6.6875C10.1146 6.98958 9.53125 7.41146 9.125 7.95312C8.72917 8.49479 8.53125 9.10938 8.53125 9.79688C8.51042 10.3698 8.63021 10.8698 8.89063 11.2969C9.16146 11.724 9.53125 12.0937 10 12.4062C10.4688 12.7083 11.0104 12.974 11.625 13.2031C12.2396 13.4219 12.8958 13.6094 13.5938 13.7656L16.4688 14.4531C17.8646 14.7656 19.1458 15.1823 20.3125 15.7031C21.4792 16.224 22.4896 16.8646 23.3438 17.625C24.1979 18.3854 24.8594 19.2812 25.3281 20.3125C25.8073 21.3437 26.0521 22.526 26.0625 23.8594C26.0521 25.8177 25.5521 27.5156 24.5625 28.9531C23.5833 30.3802 22.1667 31.4896 20.3125 32.2812C18.4688 33.0625 16.2448 33.4531 13.6406 33.4531C11.0573 33.4531 8.80729 33.0573 6.89063 32.2656C4.98438 31.474 3.49479 30.3021 2.42188 28.75C1.35938 27.1875 0.802083 25.2552 0.75 22.9531H7.29688C7.36979 24.026 7.67708 24.9219 8.21875 25.6406C8.77083 26.349 9.50521 26.8854 10.4219 27.25C11.349 27.6042 12.3958 27.7812 13.5625 27.7812C14.7083 27.7812 15.7031 27.6146 16.5469 27.2812C17.401 26.9479 18.0625 26.4844 18.5313 25.8906C19 25.2969 19.2344 24.6146 19.2344 23.8437C19.2344 23.125 19.0208 22.5208 18.5938 22.0312C18.1771 21.5417 17.5625 21.125 16.75 20.7812C15.9479 20.4375 14.9635 20.125 13.7969 19.8437L10.3125 18.9687C7.61458 18.3125 5.48438 17.2865 3.92188 15.8906C2.35938 14.4948 1.58333 12.6146 1.59375 10.25C1.58333 8.3125 2.09896 6.61979 3.14063 5.17188C4.19271 3.72396 5.63542 2.59375 7.46875 1.78125C9.30208 0.968749 11.3854 0.562499 13.7188 0.562499C16.0938 0.562499 18.1667 0.968749 19.9375 1.78125C21.7188 2.59375 23.1042 3.72396 24.0938 5.17188C25.0833 6.61979 25.5938 8.29687 25.625 10.2031H19.1406ZM34.2189 33.4063C33.1877 33.4063 32.3022 33.0417 31.5627 32.3125C30.8335 31.5729 30.4689 30.6875 30.4689 29.6562C30.4689 28.6354 30.8335 27.7604 31.5627 27.0313C32.3022 26.3021 33.1877 25.9375 34.2189 25.9375C35.2189 25.9375 36.0939 26.3021 36.8439 27.0313C37.5939 27.7604 37.9689 28.6354 37.9689 29.6562C37.9689 30.3437 37.7918 30.974 37.4377 31.5469C37.0939 32.1094 36.6408 32.5625 36.0783 32.9062C35.5158 33.2396 34.896 33.4063 34.2189 33.4063Z" fill="white"/>
</svg>
