<svg width="110" height="19" viewBox="0 0 110 19" fill="none" xmlns="http://www.w3.org/2000/svg">
<path d="M10.9858 5.56534C10.9176 4.87784 10.625 4.34375 10.108 3.96307C9.59091 3.58239 8.8892 3.39204 8.00284 3.39204C7.40057 3.39204 6.89205 3.47727 6.47727 3.64773C6.0625 3.8125 5.74432 4.04261 5.52273 4.33807C5.30682 4.63352 5.19886 4.96875 5.19886 5.34375C5.1875 5.65625 5.25284 5.92898 5.39489 6.16193C5.54261 6.39489 5.74432 6.59659 6 6.76705C6.25568 6.93182 6.55114 7.0767 6.88636 7.2017C7.22159 7.32102 7.57955 7.4233 7.96023 7.50852L9.52841 7.88352C10.2898 8.05398 10.9886 8.28125 11.625 8.56534C12.2614 8.84943 12.8125 9.19886 13.2784 9.61364C13.7443 10.0284 14.1051 10.517 14.3608 11.0795C14.6222 11.642 14.7557 12.2869 14.7614 13.0142C14.7557 14.0824 14.483 15.0085 13.9432 15.7926C13.4091 16.571 12.6364 17.1761 11.625 17.608C10.6193 18.0341 9.40625 18.2472 7.9858 18.2472C6.5767 18.2472 5.34943 18.0312 4.30398 17.5994C3.2642 17.1676 2.4517 16.5284 1.86648 15.6818C1.28693 14.8295 0.982955 13.7756 0.954545 12.5199H4.52557C4.56534 13.1051 4.73295 13.5937 5.02841 13.9858C5.32955 14.3722 5.73011 14.6648 6.23011 14.8636C6.7358 15.0568 7.30682 15.1534 7.94318 15.1534C8.56818 15.1534 9.1108 15.0625 9.57102 14.8807C10.0369 14.6989 10.3977 14.446 10.6534 14.1222C10.9091 13.7983 11.0369 13.4261 11.0369 13.0057C11.0369 12.6136 10.9205 12.2841 10.6875 12.017C10.4602 11.75 10.125 11.5227 9.68182 11.3352C9.24432 11.1477 8.70739 10.9773 8.07102 10.8239L6.17045 10.3466C4.69886 9.98864 3.53693 9.42898 2.68466 8.66761C1.83239 7.90625 1.40909 6.88068 1.41477 5.59091C1.40909 4.53409 1.69034 3.6108 2.25852 2.82102C2.83239 2.03125 3.61932 1.41477 4.61932 0.971591C5.61932 0.528409 6.75568 0.306818 8.02841 0.306818C9.32386 0.306818 10.4545 0.528409 11.4205 0.971591C12.392 1.41477 13.1477 2.03125 13.6875 2.82102C14.2273 3.6108 14.5057 4.52557 14.5227 5.56534H10.9858ZM16.5788 3.58807V0.545454H30.9141V3.58807H25.5703V18H21.9226V3.58807H16.5788ZM32.2521 0.545454H36.3857L40.3658 8.0625H40.5362L44.5163 0.545454H48.6499L42.2834 11.8295V18H38.6186V11.8295L32.2521 0.545454ZM50.6655 18V0.545454H54.3558V14.9574H61.8388V18H50.6655ZM64.2827 18V0.545454H76.044V3.58807H67.973V7.74716H75.4389V10.7898H67.973V14.9574H76.0781V18H64.2827ZM89.7592 0.545454H93.4496V11.8807C93.4496 13.1534 93.1456 14.267 92.5376 15.2216C91.9354 16.1761 91.0916 16.9205 90.0064 17.4545C88.9212 17.983 87.657 18.2472 86.2138 18.2472C84.7649 18.2472 83.4979 17.983 82.4126 17.4545C81.3274 16.9205 80.4837 16.1761 79.8814 15.2216C79.2791 14.267 78.978 13.1534 78.978 11.8807V0.545454H82.6683V11.5653C82.6683 12.2301 82.8132 12.821 83.103 13.3381C83.3984 13.8551 83.8132 14.2614 84.3473 14.5568C84.8814 14.8523 85.5036 15 86.2138 15C86.9297 15 87.5518 14.8523 88.0803 14.5568C88.6143 14.2614 89.0263 13.8551 89.3161 13.3381C89.6115 12.821 89.7592 12.2301 89.7592 11.5653V0.545454ZM96.4858 18V0.545454H103.372C104.696 0.545454 105.824 0.798295 106.756 1.30398C107.688 1.80398 108.398 2.5 108.886 3.39204C109.381 4.27841 109.628 5.30114 109.628 6.46023C109.628 7.61932 109.378 8.64205 108.878 9.52841C108.378 10.4148 107.653 11.1051 106.705 11.5994C105.761 12.0937 104.619 12.3409 103.278 12.3409H98.8892V9.38352H102.682C103.392 9.38352 103.977 9.26136 104.438 9.01705C104.903 8.76705 105.25 8.4233 105.477 7.9858C105.71 7.54261 105.827 7.03409 105.827 6.46023C105.827 5.88068 105.71 5.375 105.477 4.94318C105.25 4.50568 104.903 4.16761 104.438 3.92898C103.972 3.68466 103.381 3.5625 102.665 3.5625H100.176V18H96.4858Z" fill="white"/>
</svg>
