<svg width="48" height="48" viewBox="0 0 48 48" fill="none" xmlns="http://www.w3.org/2000/svg">
<rect width="48" height="48" rx="6" fill="white"/>
<path d="M29 20.9999C29 20.4881 28.8047 19.9763 28.4142 19.5858C28.0237 19.1953 27.5118 19 27 19M27 27C30.3137 27 33 24.3137 33 21C33 17.6863 30.3137 15 27 15C23.6863 15 21 17.6863 21 21C21 21.2737 21.0183 21.5431 21.0538 21.807C21.1122 22.2412 21.1414 22.4583 21.1217 22.5956C21.1013 22.7387 21.0752 22.8157 21.0047 22.9419C20.937 23.063 20.8177 23.1823 20.5791 23.4209L15.4686 28.5314C15.2957 28.7043 15.2092 28.7908 15.1474 28.8917C15.0925 28.9812 15.0521 29.0787 15.0276 29.1808C15 29.2959 15 29.4182 15 29.6627V31.4C15 31.9601 15 32.2401 15.109 32.454C15.2049 32.6422 15.3578 32.7951 15.546 32.891C15.7599 33 16.0399 33 16.6 33H19V31H21V29H23L24.5791 27.4209C24.8177 27.1823 24.937 27.063 25.0581 26.9953C25.1843 26.9248 25.2613 26.8987 25.4044 26.8783C25.5417 26.8586 25.7588 26.8878 26.193 26.9462C26.4569 26.9817 26.7263 27 27 27Z" stroke="#555555" stroke-width="2" stroke-linecap="round" stroke-linejoin="round"/>
</svg>
