<svg width="40" height="39" viewBox="0 0 40 39" fill="none" xmlns="http://www.w3.org/2000/svg">
<ellipse cx="19.5758" cy="19.9648" rx="19.5758" ry="19" fill="#7F56D9"/>
<path d="M20 22.2149C19.1337 22.2157 18.2807 22.0017 17.5172 21.5922C16.7538 21.1827 16.1038 20.5903 15.6253 19.8682L16.8748 19.0379C17.2168 19.5537 17.6812 19.9768 18.2265 20.2695C18.7718 20.5622 19.3811 20.7154 20 20.7154C20.6189 20.7154 21.2282 20.5622 21.7735 20.2695C22.3188 19.9768 22.7832 19.5537 23.1253 19.0379L24.3748 19.8682C23.8962 20.5903 23.2462 21.1827 22.4828 21.5922C21.7193 22.0017 20.8663 22.2157 20 22.2149ZM23 13.9649C22.7033 13.9649 22.4133 14.0529 22.1666 14.2177C21.92 14.3825 21.7277 14.6168 21.6142 14.8909C21.5006 15.165 21.4709 15.4666 21.5288 15.7576C21.5867 16.0485 21.7296 16.3158 21.9393 16.5256C22.1491 16.7354 22.4164 16.8782 22.7074 16.9361C22.9983 16.994 23.2999 16.9643 23.574 16.8507C23.8481 16.7372 24.0824 16.5449 24.2472 16.2983C24.412 16.0516 24.5 15.7616 24.5 15.4649C24.502 15.2674 24.4646 15.0714 24.3899 14.8885C24.3152 14.7056 24.2048 14.5395 24.0651 14.3998C23.9254 14.2601 23.7593 14.1497 23.5764 14.075C23.3935 14.0003 23.1975 13.9629 23 13.9649ZM17 13.9649C16.7033 13.9649 16.4133 14.0529 16.1666 14.2177C15.92 14.3825 15.7277 14.6168 15.6142 14.8909C15.5006 15.165 15.4709 15.4666 15.5288 15.7576C15.5867 16.0485 15.7296 16.3158 15.9393 16.5256C16.1491 16.7354 16.4164 16.8782 16.7074 16.9361C16.9983 16.994 17.2999 16.9643 17.574 16.8507C17.8481 16.7372 18.0824 16.5449 18.2472 16.2983C18.412 16.0516 18.5 15.7616 18.5 15.4649C18.502 15.2674 18.4646 15.0714 18.3899 14.8885C18.3152 14.7056 18.2048 14.5395 18.0651 14.3998C17.9254 14.2601 17.7593 14.1497 17.5764 14.075C17.3935 14.0003 17.1975 13.9629 17 13.9649Z" fill="white"/>
<path d="M21.302 30.4648L20 29.7148L23 24.4648H27.5C27.6971 24.4651 27.8923 24.4265 28.0744 24.3513C28.2565 24.276 28.422 24.1655 28.5613 24.0262C28.7007 23.8868 28.8111 23.7213 28.8864 23.5392C28.9617 23.3571 29.0003 23.1619 29 22.9648V12.4648C29.0003 12.2678 28.9617 12.0726 28.8864 11.8905C28.8111 11.7083 28.7007 11.5429 28.5613 11.4035C28.422 11.2642 28.2565 11.1537 28.0744 11.0784C27.8923 11.0031 27.6971 10.9645 27.5 10.9648H12.5C12.3029 10.9645 12.1077 11.0031 11.9256 11.0784C11.7435 11.1537 11.578 11.2642 11.4387 11.4035C11.2993 11.5429 11.1889 11.7083 11.1136 11.8905C11.0383 12.0726 10.9997 12.2678 11 12.4648V22.9648C10.9997 23.1619 11.0383 23.3571 11.1136 23.5392C11.1889 23.7213 11.2993 23.8868 11.4387 24.0262C11.578 24.1655 11.7435 24.276 11.9256 24.3513C12.1077 24.4265 12.3029 24.4651 12.5 24.4648H19.25V25.9648H12.5C11.7044 25.9648 10.9413 25.6488 10.3787 25.0862C9.81607 24.5236 9.5 23.7605 9.5 22.9648V12.4648C9.4999 12.0709 9.57743 11.6807 9.72816 11.3167C9.87889 10.9527 10.0999 10.6219 10.3785 10.3433C10.6571 10.0647 10.9878 9.84373 11.3518 9.693C11.7159 9.54228 12.106 9.46475 12.5 9.46484H27.5C27.894 9.46475 28.2841 9.54228 28.6482 9.693C29.0122 9.84373 29.3429 10.0647 29.6215 10.3433C29.9001 10.6219 30.1211 10.9527 30.2718 11.3167C30.4226 11.6807 30.5001 12.0709 30.5 12.4648V22.9648C30.5 23.7605 30.1839 24.5236 29.6213 25.0862C29.0587 25.6488 28.2956 25.9648 27.5 25.9648H23.8738L21.302 30.4648Z" fill="white"/>
</svg>
