<svg width="100" height="100" viewBox="0 0 100 100" fill="none" xmlns="http://www.w3.org/2000/svg">
<g id="move">
<rect id="Rectangle 5" width="100" height="100" rx="50" fill="#F7EBFC" fill-opacity="0.6"/>
<g id="Vector">
<path d="M58.0133 37.5414L69.4083 48.9595C70.8114 50.3671 71.5993 52.2736 71.5993 54.2611C71.5993 56.2486 70.8114 58.1551 69.4083 59.5628C68.5068 60.4678 67.3882 61.1265 66.1594 61.4758C64.9306 61.8251 63.6327 61.8533 62.3899 61.5578V61.8182C62.3904 62.3703 62.2822 62.917 62.0714 63.4272C61.8606 63.9374 61.5514 64.401 61.1613 64.7916C60.7713 65.1823 60.3081 65.4922 59.7982 65.7038C59.2883 65.9154 58.7418 66.0244 58.1897 66.0247H53.7586L53.7607 64.4538L52.9993 64.2216C52.9142 62.816 53.0697 61.3692 52.0759 60.3715C51.0821 59.3739 49.7582 58.7734 48.353 58.6828L47.9876 58.6702H45.8875L45.6754 58.6849C45.2979 58.7368 44.9519 58.9237 44.7015 59.2109C44.451 59.4981 44.3131 59.8663 44.3131 60.2474C44.3131 60.6285 48.5489 59.7343 48.7993 60.0216C49.0497 60.3088 52.2573 61.4239 52.6348 61.4758L51.1993 62.4216L50.8737 62.5958L51.1993 63.6216C51.7998 63.6837 49.4177 62.1686 49.8442 62.5958C50.2707 63.0231 50.5369 63.5844 50.598 64.185L50.6127 64.4538L50.6106 66.0247H40.1102C39.5584 66.0241 39.0122 65.9149 38.5027 65.7032C37.9932 65.4914 37.5304 65.1814 37.1407 64.7908C36.7511 64.4001 36.4422 63.9366 36.2317 63.4265C36.0213 62.9165 35.9134 62.37 35.9142 61.8182V56.5596C35.9142 56.1606 35.9394 55.7658 35.9856 55.3794C35.218 55.5487 34.4221 55.5437 33.6567 55.3646C32.8913 55.1855 32.1758 54.837 31.5629 54.3447C30.9501 53.8523 28.7396 54.1304 28.3998 53.4216C28.0599 52.7127 29.5994 51.035 29.5993 50.2489C29.5982 48.8557 30.1504 47.5191 31.1346 46.533C32.1187 45.5469 33.4542 44.992 34.8474 44.9903C35.994 44.991 37.1089 45.3671 38.0217 46.0611C38.9345 46.7551 39.595 47.7288 39.9023 48.8335C41.4953 47.6976 43.4039 47.0888 45.3604 47.0925H52.9437C54.2101 47.0925 55.4197 47.3445 56.5244 47.796C56.8768 47.2035 57.2976 46.6544 57.7781 46.1601L53.5948 41.9704C53.0082 41.3823 52.6788 40.5855 52.6788 39.7548C52.6788 38.9242 53.0134 37.7882 53.6 37.2C53.8899 36.9091 53.8207 36.1598 54.2 36.0023C54.5793 35.8448 55.3944 36.6216 55.8051 36.6216C56.2158 36.6216 56.6224 36.7026 57.0017 36.8601C57.381 37.0176 57.7255 37.2484 58.0154 37.5393L58.0133 37.5414Z" fill="#D5B3F7"/>
<path d="M39.8012 67.7911C38.1205 67.7911 36.5031 67.15 35.2789 65.9985C34.0547 64.847 33.3159 63.2718 33.2132 61.5943L33.2012 61.1911V58.1911C31.9444 58.1913 30.7094 57.8625 29.619 57.2374C28.5287 56.6123 27.621 55.7127 26.9861 54.628C26.3512 53.5433 26.0114 52.3114 26.0003 51.0546C25.9892 49.7978 26.3073 48.56 26.9229 47.4643C27.5385 46.3686 28.4302 45.4531 29.5094 44.8089C30.5885 44.1646 31.8175 43.8141 33.0741 43.7922C34.3308 43.7702 35.5713 44.0775 36.6723 44.6837C37.7733 45.2898 38.6965 46.1735 39.35 47.2471C40.613 46.6404 41.983 46.2881 43.382 46.2103L44.0012 46.1911H53.6012L54.1964 46.2079L54.7844 46.2559L55.0892 46.2967L55.3532 45.8959L55.6676 45.4687L51.4028 41.2039C49.7228 39.5239 49.5476 36.9127 50.8748 35.0359L51.122 34.7143L51.4028 34.4071C53.1788 32.6311 56.006 32.5351 57.8948 34.1263L58.1996 34.4071L71.1884 47.3983C72.504 48.7139 73.4089 50.3835 73.7931 52.204C74.1773 54.0244 74.0242 55.9173 73.3525 57.6524C72.6807 59.3874 71.5192 60.8899 70.0093 61.977C68.4994 63.0642 66.7061 63.6891 64.8476 63.7759L64.3076 63.7855L63.8708 63.7687L63.8084 63.9223C63.3457 64.94 62.6322 65.8236 61.7347 66.4902C60.8373 67.1568 59.7852 67.5846 58.6772 67.7335L58.2164 67.7791L57.7988 67.7911H39.8012ZM55.6532 36.9535C55.4408 36.7391 55.1557 36.6122 54.8543 36.598C54.5528 36.5837 54.257 36.6831 54.0253 36.8765C53.7937 37.0698 53.643 37.3431 53.6031 37.6422C53.5632 37.9414 53.6371 38.2445 53.81 38.4919L53.9492 38.6599L60.6884 45.3991L59.1572 46.9399C58.6532 47.4439 58.2332 48.0055 57.902 48.6103L57.6692 49.0711L57.0308 50.4727L55.5476 50.0575C55.0743 49.9247 54.5885 49.8411 54.098 49.8079L53.5988 49.7911H44.0012C42.3212 49.7911 40.778 50.3671 39.554 51.3271L39.2108 51.6151L38.8148 51.9991L38.5916 52.2391L38.3252 52.5607L38.0348 52.9615L37.934 53.1151C37.8356 53.2663 37.742 53.4247 37.658 53.5855L37.5188 53.8543L37.37 54.1831L37.2884 54.3847L37.166 54.7255L37.034 55.1671C36.9723 55.402 36.9227 55.6399 36.8852 55.8799L36.8588 56.0791L36.8156 56.5327L36.8012 56.9911V61.1911C36.8012 62.7463 37.982 64.0231 39.494 64.1767L39.8012 64.1911H50.0036V63.6007C50.004 62.8583 49.7292 62.1422 49.2322 61.5908C48.7353 61.0393 48.0516 60.6917 47.3132 60.6151L47.006 60.6007H44.606C44.1467 60.6053 43.703 60.4342 43.3657 60.1224C43.0285 59.8106 42.8232 59.3816 42.7919 58.9234C42.7606 58.4651 42.9057 58.0122 43.1974 57.6574C43.4892 57.3027 43.9055 57.0729 44.3612 57.0151L44.606 57.0007H47.006C48.6867 57.0006 50.3041 57.6417 51.5283 58.7932C52.7525 59.9447 53.4913 61.5199 53.594 63.1975L53.606 63.6007L53.6036 64.1911H57.7988C59.2196 64.1911 60.4268 63.1975 60.7244 61.8511L60.7724 61.5583L61.0124 59.5423L62.9852 60.0175C64.2217 60.3184 65.5218 60.2185 66.6977 59.7321C67.8737 59.2457 68.8645 58.398 69.527 57.3115C70.1896 56.225 70.4895 54.9559 70.3835 53.6878C70.2774 52.4197 69.771 51.2181 68.9372 50.2567L68.6444 49.9447L55.6532 36.9535ZM33.2012 47.3935C32.2805 47.3992 31.397 47.7576 30.7324 48.3947C30.0678 49.0319 29.6726 49.8995 29.628 50.8191C29.5835 51.7387 29.8929 52.6405 30.4928 53.3389C31.0927 54.0374 31.9374 54.4795 32.8532 54.5743L33.2012 54.5887L33.4748 54.5767L33.4868 54.5167C33.5708 54.1567 33.6716 53.8087 33.7892 53.4655L34.022 52.8535L34.2764 52.2871L34.4132 52.0159L34.7252 51.4543L34.9364 51.1183L35.2844 50.6143L35.462 50.3791L35.7212 50.0575L36.0308 49.7047L36.3908 49.3279C35.8868 48.3679 34.9748 47.6719 33.902 47.4607L33.5396 47.4079L33.2012 47.3911V47.3935Z" fill="#8B32EA"/>
</g>
</g>
</svg>
