<svg width="48" height="48" viewBox="0 0 48 48" fill="none" xmlns="http://www.w3.org/2000/svg">
<path d="M41.1429 4H6.84821C5.27679 4 4 5.29464 4 6.88393V41.1161C4 42.7054 5.27679 44 6.84821 44H41.1429C42.7143 44 44 42.7054 44 41.1161V6.88393C44 5.29464 42.7143 4 41.1429 4ZM16.0893 38.2857H10.1607V19.1964H16.0982V38.2857H16.0893ZM13.125 16.5893C11.2232 16.5893 9.6875 15.0446 9.6875 13.1518C9.6875 11.2589 11.2232 9.71429 13.125 9.71429C15.0179 9.71429 16.5625 11.2589 16.5625 13.1518C16.5625 15.0536 15.0268 16.5893 13.125 16.5893V16.5893ZM38.3125 38.2857H32.3839V29C32.3839 26.7857 32.3393 23.9375 29.3036 23.9375C26.2143 23.9375 25.7411 26.3482 25.7411 28.8393V38.2857H19.8125V19.1964H25.5V21.8036H25.5804C26.375 20.3036 28.3125 18.7232 31.1964 18.7232C37.1964 18.7232 38.3125 22.6786 38.3125 27.8214V38.2857V38.2857Z" fill="#0A66C2"/>
</svg>
