<svg width="100" height="100" viewBox="0 0 100 100" fill="none" xmlns="http://www.w3.org/2000/svg">
<g id="think">
<g id="Group 1171274939">
<rect id="Rectangle 5" width="100" height="100" rx="50" fill="#F7EBFC" fill-opacity="0.6"/>
</g>
<g id="Mask group">
<mask id="mask0_2804_105433" style="mask-type:luminance" maskUnits="userSpaceOnUse" x="33" y="28" width="34" height="44">
<g id="Group">
<g id="Group_2">
<path id="Vector" d="M50 62C58.2843 62 65 54.8366 65 46C65 37.1634 58.2843 30 50 30C41.7157 30 35 37.1634 35 46C35 54.8366 41.7157 62 50 62Z" fill="#555555" stroke="white" stroke-width="4"/>
<path id="Vector_2" d="M50 40V62" stroke="white" stroke-width="4" stroke-linecap="round" stroke-linejoin="round"/>
<path id="Vector_3" d="M56 60.6689C54.1216 61.5467 52.0733 62.0011 50 61.9999C47.9267 62.0009 45.8784 61.5465 44 60.6689" stroke="white" stroke-width="4"/>
<path id="Vector_4" d="M50 62V70M50 48L56 42M50 55L44 49" stroke="white" stroke-width="4" stroke-linecap="round" stroke-linejoin="round"/>
</g>
</g>
</mask>
<g mask="url(#mask0_2804_105433)">
<path id="Vector_5" d="M26 26H74V74H26V26Z" fill="#8B32EA"/>
</g>
</g>
</g>
</svg>
