<svg width="100" height="100" viewBox="0 0 100 100" fill="none" xmlns="http://www.w3.org/2000/svg">
<g id="focus">
<g id="Group 1171274940">
<rect id="Rectangle 5" width="100" height="100" rx="50" fill="#F7EBFC" fill-opacity="0.6"/>
</g>
<g id="focus_2">
<path id="Vector" d="M51.0841 67.7693L51.0838 67.7695C50.9105 67.9184 50.6894 68.0002 50.4608 68C50.2332 67.9998 50.0131 67.9182 49.8402 67.7701C49.8396 67.7695 49.8389 67.7689 49.8383 67.7684L49.2113 67.2243C49.2102 67.2233 49.209 67.2224 49.2079 67.2214C40.086 59.2376 36 52.3539 36 46.4623C36 42.6266 37.5237 38.9481 40.2359 36.2359C42.9481 33.5237 46.6266 32 50.4623 32C54.2979 32 57.9764 33.5237 60.6886 36.2359C63.4008 38.9481 64.9245 42.6266 64.9245 46.4623C64.9245 52.4927 60.6431 59.56 51.0841 67.7693Z" fill="#D5B3F7" stroke="#8B32EA" stroke-width="4"/>
<path id="Vector_2" d="M43.498 44.0964C43.498 47.5005 46.312 49.3142 48.3714 50.9382C49.098 51.5108 49.798 52.0505 50.498 52.0505C51.198 52.0505 51.898 51.5115 52.6246 50.9375C54.6847 49.3149 57.498 47.5005 57.498 44.0971C57.498 40.693 53.648 38.2787 50.498 41.5519C47.348 38.278 43.498 40.6923 43.498 44.0964Z" fill="#8B32EA"/>
</g>
</g>
</svg>
