<svg width="28" height="29" viewBox="0 0 28 29" fill="none" xmlns="http://www.w3.org/2000/svg">
<g clip-path="url(#clip0_1768_84269)">
<path d="M19.3434 13.0585C19.0581 10.9694 18.1057 9.03364 16.6328 7.54949C15.16 6.06534 13.2485 5.11511 11.1927 4.84519C9.13694 4.57527 7.05098 5.00063 5.25616 6.05574C3.46133 7.11085 2.05721 8.73718 1.26009 10.6842M0.676758 5.93554V10.6842H5.34342M0.676758 15.4329C0.962077 17.522 1.91451 19.4578 3.38735 20.9419C4.86018 22.4261 6.77171 23.3763 8.82747 23.6462C10.8832 23.9162 12.9692 23.4908 14.764 22.4357C16.5588 21.3806 17.963 19.7542 18.7601 17.8072M19.3434 22.5559V17.8072H14.6768" stroke="#555555" stroke-width="2" stroke-linecap="round" stroke-linejoin="round"/>
</g>
<defs>
<clipPath id="clip0_1768_84269">
<rect width="28" height="28.492" fill="white"/>
</clipPath>
</defs>
</svg>
