<svg width="24" height="24" viewBox="0 0 24 24" fill="none" xmlns="http://www.w3.org/2000/svg">
<g clip-path="url(#clip0_1836_84964)">
<path d="M22.1623 5.65495C21.3989 5.99264 20.5893 6.21442 19.7603 6.31295C20.634 5.79038 21.288 4.96796 21.6003 3.99895C20.7803 4.48695 19.8813 4.82895 18.9443 5.01395C18.3149 4.34053 17.4807 3.89391 16.5713 3.74353C15.6618 3.59316 14.7282 3.74744 13.9156 4.1824C13.1029 4.61737 12.4567 5.30863 12.0774 6.14874C11.6981 6.98885 11.607 7.93073 11.8183 8.82795C10.1554 8.7446 8.52863 8.31247 7.04358 7.55961C5.55854 6.80675 4.24842 5.75 3.1983 4.45795C2.82659 5.0964 2.63125 5.82218 2.6323 6.56095C2.6323 8.01095 3.3703 9.29195 4.4923 10.042C3.82831 10.021 3.17893 9.84173 2.5983 9.51895V9.57095C2.5985 10.5367 2.93267 11.4726 3.54414 12.22C4.15562 12.9675 5.00678 13.4804 5.9533 13.672C5.33691 13.839 4.6906 13.8636 4.0633 13.7439C4.33016 14.5752 4.8503 15.3021 5.55089 15.8231C6.25147 16.344 7.09742 16.6327 7.9703 16.6489C7.10278 17.3303 6.10947 17.8339 5.04718 18.1311C3.98488 18.4283 2.87442 18.5132 1.7793 18.3809C3.69099 19.6104 5.91639 20.2631 8.1893 20.2609C15.8823 20.2609 20.0893 13.888 20.0893 8.36095C20.0893 8.18095 20.0843 7.99895 20.0763 7.82095C20.8952 7.22912 21.6019 6.49597 22.1633 5.65595L22.1623 5.65495Z" fill="white"/>
</g>
<defs>
<clipPath id="clip0_1836_84964">
<rect width="24" height="24" fill="white"/>
</clipPath>
</defs>
</svg>
