<svg width="24" height="24" viewBox="0 0 24 24" fill="none" xmlns="http://www.w3.org/2000/svg">
<path d="M8.52045 13.8477C7.48045 13.8477 6.63245 12.9027 6.63245 11.7457C6.63245 10.5897 7.45945 9.64572 8.52145 9.64572C9.57145 9.64572 10.4314 10.5897 10.4104 11.7457C10.4104 12.9027 9.57145 13.8477 8.52045 13.8477ZM15.4945 13.8477C14.4545 13.8477 13.6045 12.9027 13.6045 11.7457C13.6045 10.5897 14.4335 9.64572 15.4945 9.64572C16.5445 9.64572 17.4045 10.5897 17.3845 11.7457C17.3845 12.9027 16.5555 13.8477 15.4945 13.8477ZM10.1255 4.32472L9.81745 3.76172L9.18345 3.86672C7.74663 4.10629 6.34826 4.53677 5.02545 5.14672L4.79745 5.25272L4.65545 5.46172C2.04245 9.31572 1.32545 13.1097 1.68045 16.8377L1.71945 17.2437L2.04945 17.4837C3.58664 18.6116 5.30352 19.4714 7.12745 20.0267L7.91745 20.2687L9.03045 17.5517C10.9405 18.0237 13.0604 18.0247 14.9694 17.5517L16.0765 20.2697L16.8664 20.0267C18.6918 19.4729 20.4096 18.6126 21.9464 17.4827L22.2735 17.2447L22.3134 16.8427C22.7495 12.5227 21.6164 8.75872 19.3554 5.45772L19.2134 5.25072L18.9855 5.14672C17.663 4.53955 16.2663 4.10919 14.8315 3.86672L14.2135 3.76372L13.8995 4.30472C13.8065 4.4665 13.7187 4.63125 13.6364 4.79872C12.5517 4.68666 11.4582 4.68666 10.3735 4.79872C10.2938 4.63917 10.2111 4.48114 10.1255 4.32472ZM6.71545 16.6117C6.91245 16.7257 7.12045 16.8377 7.32545 16.9397L6.87645 18.0357C5.66205 17.593 4.50986 16.9954 3.44845 16.2577C3.22345 13.1187 3.86145 9.95272 6.01245 6.68772C6.92021 6.28793 7.86646 5.98201 8.83645 5.77472C8.89645 5.89972 8.95245 6.02172 8.99845 6.13072L9.27145 6.77372L9.96345 6.67272C11.3195 6.47404 12.6974 6.47404 14.0535 6.67272L14.7435 6.77272L15.0155 6.13072C15.0625 6.01872 15.1175 5.89672 15.1755 5.77472C16.1525 5.98472 17.0985 6.29372 18.0035 6.68972C19.8785 9.50972 20.8244 12.6557 20.5494 16.2567C19.4881 16.9957 18.3351 17.5934 17.1194 18.0347L16.6744 16.9407C16.8805 16.8377 17.0885 16.7257 17.2875 16.6117C17.7775 16.3297 18.3044 15.9777 18.6404 15.6417L17.3605 14.3617C17.1975 14.5257 16.8375 14.7817 16.3834 15.0437C15.9394 15.2997 15.4984 15.5067 15.2164 15.5997C13.2134 16.2627 10.7885 16.2627 8.78445 15.5997C8.50345 15.5067 8.06245 15.2997 7.61845 15.0437C7.16445 14.7827 6.80445 14.5257 6.64045 14.3617L5.36045 15.6417C5.69745 15.9777 6.22545 16.3297 6.71545 16.6117Z" fill="white"/>
</svg>
