<svg width="21" height="21" viewBox="0 0 21 21" fill="none" xmlns="http://www.w3.org/2000/svg">
<path d="M4.66797 12.9998H3.83464C3.39261 12.9998 2.96868 12.8242 2.65612 12.5117C2.34356 12.1991 2.16797 11.7752 2.16797 11.3332V3.83317C2.16797 3.39114 2.34356 2.96722 2.65612 2.65466C2.96868 2.3421 3.39261 2.1665 3.83464 2.1665H11.3346C11.7767 2.1665 12.2006 2.3421 12.5131 2.65466C12.8257 2.96722 13.0013 3.39114 13.0013 3.83317V4.6665M9.66797 7.99984H17.168C18.0884 7.99984 18.8346 8.74603 18.8346 9.6665V17.1665C18.8346 18.087 18.0884 18.8332 17.168 18.8332H9.66797C8.74749 18.8332 8.0013 18.087 8.0013 17.1665V9.6665C8.0013 8.74603 8.74749 7.99984 9.66797 7.99984Z" stroke="white" stroke-width="1.67" stroke-linecap="round" stroke-linejoin="round"/>
</svg>
