<svg width="40" height="40" viewBox="0 0 40 40" fill="none" xmlns="http://www.w3.org/2000/svg">
<g clip-path="url(#clip0_1250_70065)">
<path d="M18.3325 20.8335C18.6904 21.3119 19.147 21.7078 19.6713 21.9942C20.1956 22.2807 20.7754 22.4511 21.3714 22.4937C21.9674 22.5364 22.5655 22.4504 23.1253 22.2416C23.6851 22.0328 24.1935 21.706 24.6159 21.2835L27.1159 18.7835C27.8748 17.9976 28.2948 16.9451 28.2853 15.8526C28.2758 14.7601 27.8376 13.7151 27.0651 12.9426C26.2926 12.17 25.2475 11.7318 24.155 11.7223C23.0625 11.7128 22.01 12.1328 21.2242 12.8918L19.7909 14.3168M21.6659 19.1668C21.308 18.6884 20.8514 18.2925 20.3271 18.006C19.8027 17.7196 19.2229 17.5492 18.627 17.5065C18.031 17.4638 17.4329 17.5498 16.8731 17.7586C16.3133 17.9675 15.8049 18.2942 15.3825 18.7168L12.8825 21.2168C12.1235 22.0026 11.7036 23.0552 11.713 24.1476C11.7225 25.2401 12.1607 26.2852 12.9333 27.0577C13.7058 27.8302 14.7509 28.2684 15.8434 28.2779C16.9358 28.2874 17.9883 27.8675 18.7742 27.1085L20.1992 25.6835" stroke="#667085" stroke-width="1.67" stroke-linecap="round" stroke-linejoin="round"/>
</g>
<defs>
<clipPath id="clip0_1250_70065">
<rect width="20" height="20" fill="white" transform="translate(10 10)"/>
</clipPath>
</defs>
</svg>
