<svg width="24" height="24" viewBox="0 0 24 24" fill="none" xmlns="http://www.w3.org/2000/svg">
<g id="streamlinehq-interface-file-content-list-          flat-48-ico_xAhfTr4R86an9MC1">
<path id="Vector" d="M12 0.75C8.59065 0.75 6.26255 0.927615 4.82317 1.09554C3.37911 1.26401 2.27779 2.35867 2.11317 3.8082C1.93845 5.34665 1.75 7.94525 1.75 12C1.75 16.0548 1.93845 18.6534 2.11317 20.1919C2.27779 21.6414 3.3791 22.736 4.82317 22.9045C6.26255 23.0724 8.59065 23.25 12 23.25C15.4093 23.25 17.7374 23.0724 19.1768 22.9045C20.6208 22.736 21.7221 21.6414 21.8867 20.1919C22.0614 18.6534 22.2499 16.0548 22.2499 12C22.2499 10.4814 22.2234 9.16715 22.1812 8.0365C22.1784 7.9592 22.1635 7.88285 22.1373 7.8101C21.9081 7.17445 21.207 5.7232 19.1759 3.74237C17.0205 1.64034 15.4799 1.00227 14.9067 0.82401C14.8421 0.803915 14.7751 0.79266 14.7075 0.79054C13.8935 0.765055 12.9926 0.75 12 0.75Z" fill="#8FBFFA"/>
<path id="Vector_2" d="M22.1651 7.90765C20.8953 7.9071 18.708 7.88705 17.4555 7.7669C16.0907 7.63595 15.0173 6.5469 14.8836 5.15255C14.773 3.99887 14.751 2.07142 14.75 0.792969C14.8031 0.797669 14.8556 0.808024 14.9066 0.823879C15.4798 1.00214 17.0204 1.64021 19.1758 3.74225C21.2069 5.72305 21.9079 7.17435 22.1371 7.80995C22.1486 7.8419 22.158 7.87455 22.1651 7.90765Z" fill="#2859C5"/>
<path id="Vector_3" fill-rule="evenodd" clip-rule="evenodd" d="M10 17.5C10 18.0523 10.4477 18.5 11 18.5H16.5C17.0523 18.5 17.5 18.0523 17.5 17.5C17.5 16.9477 17.0523 16.5 16.5 16.5H11C10.4477 16.5 10 16.9477 10 17.5ZM11 14C10.4477 14 10 13.5523 10 13C10 12.4477 10.4477 12 11 12H14.5C15.0523 12 15.5 12.4477 15.5 13C15.5 13.5523 15.0523 14 14.5 14H11ZM6.5 17.5C6.5 18.0523 6.9477 18.5 7.5 18.5H8C8.5523 18.5 9 18.0523 9 17.5C9 16.9477 8.5523 16.5 8 16.5H7.5C6.9477 16.5 6.5 16.9477 6.5 17.5ZM7.5 14C6.9477 14 6.5 13.5523 6.5 13C6.5 12.4477 6.9477 12 7.5 12H8C8.5523 12 9 12.4477 9 13C9 13.5523 8.5523 14 8 14H7.5Z" fill="#2859C5"/>
</g>
</svg>
