<svg width="25" height="26" viewBox="0 0 25 26" fill="none" xmlns="http://www.w3.org/2000/svg">
<g id="Frame">
<path id="Vector" fill-rule="evenodd" clip-rule="evenodd" d="M5.55727 20.1288L5.55981 20.1313C7.3825 21.9541 9.84611 22.9888 12.4571 22.9888C15.057 22.9888 17.2854 22.1537 18.8756 20.5138L18.878 20.5113C20.4546 18.8362 21.3447 16.6175 21.2977 14.3446C21.3467 13.4374 21.2403 11.1416 19.7826 8.17757L19.7819 8.17622C19.5555 7.72342 19.1093 7.39472 18.567 7.28558C18.0571 7.17319 17.5022 7.34244 17.1146 7.72589C16.9423 7.87408 16.7948 8.02151 16.6652 8.15122L16.6631 8.15325L16.6281 8.18822C16.1484 4.31506 14.3275 2.4752 12.6878 1.64321C12.668 1.62408 12.6436 1.60153 12.6176 1.582C12.5879 1.55975 12.5352 1.52482 12.4651 1.51169C11.6221 1.19282 10.6935 1.6512 10.3677 2.52008L10.367 2.52179C9.66536 4.43972 8.35537 5.75476 7.00697 7.05502C5.13343 8.83249 3.1355 10.77 3.18351 14.2436C3.13514 16.4732 4.02784 18.55 5.55727 20.1288ZM16.451 8.6628C16.451 8.66279 16.451 8.66282 16.451 8.6628C16.5712 8.56657 16.6915 8.44632 16.8239 8.31399C16.7678 8.3702 16.7136 8.42419 16.6609 8.47514C16.5894 8.54412 16.5202 8.60745 16.451 8.6628ZM12.421 20.6579C14.1819 20.7507 15.8531 20.1035 17.1577 18.8943C18.3128 17.6903 18.9184 16.0186 18.9184 14.3408V14.2927C18.9184 12.8452 18.6327 11.4409 18.0629 10.1547C17.3221 10.8614 16.8004 11.2867 16.3838 11.5097C16.1501 11.6348 15.9394 11.7019 15.7339 11.7151C15.5276 11.7283 15.3439 11.6859 15.1672 11.618C14.6825 11.4358 14.3952 10.9576 14.3952 10.4432V10.4387C14.419 9.24855 14.3232 7.9515 13.9719 6.79195C13.6476 5.72178 13.1103 4.783 12.2617 4.14537C11.3246 6.12572 9.91485 7.53067 8.62137 8.77796L8.53207 8.86483C6.7861 10.5629 5.4694 11.8435 5.51468 14.2885L5.51476 14.2927C5.51476 15.8696 6.11718 17.3512 7.22853 18.4626L7.23126 18.4653C8.58381 19.8644 10.4495 20.6577 12.409 20.6577L12.421 20.6579Z" fill="white"/>
</g>
</svg>
