<svg width="25" height="26" viewBox="0 0 25 26" fill="none" xmlns="http://www.w3.org/2000/svg">
<g id="Frame">
<path id="Vector" d="M6.77214 21.3333C9.07332 21.3333 10.9388 19.4679 10.9388 17.1667C10.9388 14.8655 9.07332 13 6.77214 13C4.47095 13 2.60547 14.8655 2.60547 17.1667C2.60547 19.4679 4.47095 21.3333 6.77214 21.3333Z" stroke="white" stroke-width="2.38095" stroke-linecap="round" stroke-linejoin="round"/>
<path id="Vector_2" d="M12.4987 11.4388C14.7999 11.4388 16.6654 9.57332 16.6654 7.27214C16.6654 4.97095 14.7999 3.10547 12.4987 3.10547C10.1975 3.10547 8.33203 4.97095 8.33203 7.27214C8.33203 9.57332 10.1975 11.4388 12.4987 11.4388Z" stroke="white" stroke-width="2.38095" stroke-linecap="round" stroke-linejoin="round"/>
<path id="Vector_3" d="M18.2292 21.3333C20.5304 21.3333 22.3958 19.4679 22.3958 17.1667C22.3958 14.8655 20.5304 13 18.2292 13C15.928 13 14.0625 14.8655 14.0625 17.1667C14.0625 19.4679 15.928 21.3333 18.2292 21.3333Z" stroke="white" stroke-width="2.38095" stroke-linecap="round" stroke-linejoin="round"/>
</g>
</svg>
