<svg width="25" height="26" viewBox="0 0 25 26" fill="none" xmlns="http://www.w3.org/2000/svg">
<g id="Frame">
<path id="Vector" d="M7.519 17.4837C4.76758 17.4837 2.53711 15.4763 2.53711 13H12.5009C12.5009 15.4763 10.2704 17.4837 7.519 17.4837Z" stroke="white" stroke-width="2.17391" stroke-linecap="round" stroke-linejoin="round"/>
<path id="Vector_2" d="M16.9837 17.982C16.9837 20.7334 14.9763 22.9638 12.5 22.9638V13C14.9763 13 16.9837 15.2305 16.9837 17.982Z" stroke="white" stroke-width="2.17391" stroke-linecap="round" stroke-linejoin="round"/>
<path id="Vector_3" d="M8.01562 8.01705C8.01562 10.7685 10.023 12.9989 12.4993 12.9989V3.03516C10.023 3.03516 8.01562 5.26562 8.01562 8.01705Z" stroke="white" stroke-width="2.17391" stroke-linecap="round" stroke-linejoin="round"/>
<path id="Vector_4" d="M17.4818 8.51562C14.7304 8.51562 12.5 10.523 12.5 12.9993H22.4638C22.4638 10.523 20.2333 8.51562 17.4818 8.51562Z" stroke="white" stroke-width="2.17391" stroke-linecap="round" stroke-linejoin="round"/>
</g>
</svg>
