<svg width="32" height="32" viewBox="0 0 32 32" fill="none" xmlns="http://www.w3.org/2000/svg">
<circle cx="16" cy="16" r="16" fill="white"/>
<path fill-rule="evenodd" clip-rule="evenodd" d="M11.875 9.2522H14.125C14.5375 9.2522 14.875 9.5897 14.875 10.0022V22.0022C14.875 22.4147 14.5375 22.7522 14.125 22.7522H11.875C11.4625 22.7522 11.125 22.4147 11.125 22.0022V10.0022C11.125 9.5897 11.4625 9.2522 11.875 9.2522ZM17.875 9.2522H20.125C20.5375 9.2522 20.875 9.5897 20.875 10.0022V22.0022C20.875 22.4147 20.5375 22.7522 20.125 22.7522H17.875C17.4625 22.7522 17.125 22.4147 17.125 22.0022V10.0022C17.125 9.5897 17.4625 9.2522 17.875 9.2522Z" fill="#7F56D9"/>
</svg>
