<svg width="34" height="34" viewBox="0 0 34 34" fill="none" xmlns="http://www.w3.org/2000/svg">
<path d="M31 17C31 18.8385 30.6379 20.659 29.9343 22.3576C29.2307 24.0561 28.1995 25.5995 26.8995 26.8995C25.5995 28.1995 24.0561 29.2307 22.3576 29.9343C20.659 30.6379 18.8385 31 17 31C15.1615 31 13.341 30.6379 11.6424 29.9343C9.94387 29.2307 8.40052 28.1995 7.1005 26.8995C5.80048 25.5995 4.76925 24.0561 4.06569 22.3576C3.36212 20.659 3 18.8385 3 17C3 15.1615 3.36212 13.341 4.06569 11.6424C4.76925 9.94387 5.80049 8.40052 7.10051 7.1005C8.40053 5.80048 9.94388 4.76925 11.6424 4.06569C13.341 3.36212 15.1615 3 17 3C18.8385 3 20.659 3.36212 22.3576 4.06569C24.0561 4.76925 25.5995 5.80049 26.8995 7.10051C28.1995 8.40053 29.2307 9.94388 29.9343 11.6424C30.6379 13.341 31 15.1615 31 17L31 17Z" stroke="#D9D9D9" stroke-width="6"/>
<path d="M17 3C19.2093 3 21.3873 3.52289 23.3559 4.52591C25.3244 5.52893 27.0276 6.98361 28.3262 8.77101C29.6249 10.5584 30.482 12.6278 30.8276 14.8099C31.1733 16.9921 30.9975 19.225 30.3148 21.3262" stroke="#7F56D9" stroke-width="6" stroke-linecap="round"/>
</svg>
