<svg width="24" height="24" viewBox="0 0 24 24" fill="none" xmlns="http://www.w3.org/2000/svg">
<rect x="24" y="24" width="24" height="24" rx="4" transform="rotate(-180 24 24)" fill="#F9FAFB"/>
<path fill-rule="evenodd" clip-rule="evenodd" d="M16.8403 7.64645C17.0532 7.84171 17.0532 8.15829 16.8403 8.35355L13.25 11.6464C13.0371 11.8417 13.0371 12.1583 13.25 12.3536L16.8403 15.6464C17.0532 15.8417 17.0532 16.1583 16.8403 16.3536C16.6274 16.5488 16.2822 16.5488 16.0693 16.3536L12.479 13.0607C11.8403 12.4749 11.8403 11.5251 12.479 10.9393L16.0693 7.64645C16.2822 7.45118 16.6274 7.45118 16.8403 7.64645Z" fill="#939393"/>
<path fill-rule="evenodd" clip-rule="evenodd" d="M11.8403 7.64645C12.0532 7.84171 12.0532 8.15829 11.8403 8.35355L8.25 11.6464C8.0371 11.8417 8.0371 12.1583 8.25 12.3536L11.8403 15.6464C12.0532 15.8417 12.0532 16.1583 11.8403 16.3536C11.6274 16.5488 11.2822 16.5488 11.0693 16.3536L7.47902 13.0607C6.84033 12.4749 6.84032 11.5251 7.47902 10.9393L11.0693 7.64645C11.2822 7.45118 11.6274 7.45118 11.8403 7.64645Z" fill="#939393"/>
</svg>
