<svg width="48" height="48" viewBox="0 0 48 48" fill="none" xmlns="http://www.w3.org/2000/svg">
<rect width="48" height="48" rx="6" fill="white"/>
<path d="M24 32H17.2C16.0799 32 15.5198 32 15.092 31.782C14.7157 31.5903 14.4097 31.2843 14.218 30.908C14 30.4802 14 29.9201 14 28.8V19.2C14 18.0799 14 17.5198 14.218 17.092C14.4097 16.7157 14.7157 16.4097 15.092 16.218C15.5198 16 16.0799 16 17.2 16H17.6C19.8402 16 20.9603 16 21.816 16.436C22.5686 16.8195 23.1805 17.4314 23.564 18.184C24 19.0397 24 20.1598 24 22.4M24 32V22.4M24 32H30.8C31.9201 32 32.4802 32 32.908 31.782C33.2843 31.5903 33.5903 31.2843 33.782 30.908C34 30.4802 34 29.9201 34 28.8V19.2C34 18.0799 34 17.5198 33.782 17.092C33.5903 16.7157 33.2843 16.4097 32.908 16.218C32.4802 16 31.9201 16 30.8 16H30.4C28.1598 16 27.0397 16 26.184 16.436C25.4314 16.8195 24.8195 17.4314 24.436 18.184C24 19.0397 24 20.1598 24 22.4" stroke="#555555" stroke-width="2" stroke-linecap="round" stroke-linejoin="round"/>
</svg>
