<svg width="20" height="4" viewBox="0 0 20 4" fill="none" xmlns="http://www.w3.org/2000/svg">
<path d="M11.75 2C11.75 2.34612 11.6474 2.68446 11.4551 2.97225C11.2628 3.26003 10.9895 3.48434 10.6697 3.61679C10.3499 3.74924 9.99806 3.7839 9.65859 3.71637C9.31913 3.64885 9.00731 3.48218 8.76256 3.23744C8.51782 2.99269 8.35115 2.68087 8.28363 2.34141C8.2161 2.00194 8.25076 1.65007 8.38321 1.3303C8.51567 1.01053 8.73997 0.737221 9.02775 0.544928C9.31554 0.352636 9.65388 0.25 10 0.25C10.4641 0.25 10.9092 0.434375 11.2374 0.762563C11.5656 1.09075 11.75 1.53587 11.75 2ZM2.5625 0.25C2.21638 0.25 1.87804 0.352636 1.59025 0.544928C1.30247 0.737221 1.07816 1.01053 0.945712 1.3303C0.813258 1.65007 0.778602 2.00194 0.846127 2.34141C0.913651 2.68087 1.08032 2.99269 1.32506 3.23744C1.56981 3.48218 1.88163 3.64885 2.22109 3.71637C2.56056 3.7839 2.91243 3.74924 3.2322 3.61679C3.55197 3.48434 3.82528 3.26003 4.01757 2.97225C4.20987 2.68446 4.3125 2.34612 4.3125 2C4.3125 1.53587 4.12813 1.09075 3.79994 0.762563C3.47175 0.434375 3.02663 0.25 2.5625 0.25ZM17.4375 0.25C17.0914 0.25 16.753 0.352636 16.4653 0.544928C16.1775 0.737221 15.9532 1.01053 15.8207 1.3303C15.6883 1.65007 15.6536 2.00194 15.7211 2.34141C15.7887 2.68087 15.9553 2.99269 16.2001 3.23744C16.4448 3.48218 16.7566 3.64885 17.0961 3.71637C17.4356 3.7839 17.7874 3.74924 18.1072 3.61679C18.427 3.48434 18.7003 3.26003 18.8926 2.97225C19.0849 2.68446 19.1875 2.34612 19.1875 2C19.1875 1.53587 19.0031 1.09075 18.6749 0.762563C18.3468 0.434375 17.9016 0.25 17.4375 0.25Z" fill="#555555" fill-opacity="0.6"/>
</svg>
