<svg width="100" height="100" viewBox="0 0 100 100" fill="none" xmlns="http://www.w3.org/2000/svg">
<rect width="100" height="100" rx="50" fill="#F7EBFC" fill-opacity="0.6"/>
<g clip-path="url(#clip0_2804_104872)">
<path d="M66.4847 32C66.846 32 67.2026 32.0783 67.528 32.2291C67.8534 32.3799 68.1392 32.5993 68.3639 32.8709L68.5415 33.1198L75.7417 44.64C75.9775 45.0178 76.0956 45.4525 76.082 45.8927C76.0683 46.3329 75.9236 46.7602 75.6649 47.1238L75.4729 47.3611L55.0004 69.3257C54.6202 69.698 54.1665 69.9937 53.6658 70.1955C53.165 70.3973 52.6274 70.501 52.0843 70.5008C51.1243 70.5008 50.2003 70.1782 49.4203 69.54L49.0962 69.2497L28.6958 47.3611C28.3889 47.0324 28.1868 46.6259 28.1136 46.1901C28.0404 45.7542 28.0992 45.3074 28.283 44.9027L28.427 44.6377L35.6583 33.0668L35.8119 32.8594C35.9218 32.7282 36.0466 32.6092 36.1839 32.5046L36.3975 32.3571L36.6087 32.2419L36.7288 32.1889L36.8728 32.1313L37.1344 32.0576L37.4032 32.0115L37.684 32H66.4847Z" fill="#C18EF3"/>
<path d="M41.1042 39.5417L39.3432 42.3591C38.8496 43.1489 38.9665 44.1748 39.625 44.8333L42.1458 47.3542" stroke="#8B32EA" stroke-width="4" stroke-linecap="round"/>
</g>
<defs>
<clipPath id="clip0_2804_104872">
<rect width="50" height="50" fill="white" transform="translate(26 26)"/>
</clipPath>
</defs>
</svg>
