<svg width="100" height="100" viewBox="0 0 100 100" fill="none" xmlns="http://www.w3.org/2000/svg">
<rect width="100" height="100" rx="50" fill="#F7EBFC" fill-opacity="0.6"/>
<path d="M49.5 26C54.4065 26 59.1121 27.9491 62.5815 31.4185C66.0509 34.8879 68 39.5935 68 44.5C68 49.9505 65.6116 54.9442 60.9445 59.4021C60.8542 59.4884 60.7912 59.5993 60.7633 59.721L59.416 65.5466H39.584L38.2418 59.721C38.2135 59.6002 38.1505 59.4902 38.0606 59.4046C33.391 54.9442 31 49.9505 31 44.4974C31.0007 39.5914 32.9501 34.8865 36.4194 31.4176C39.8888 27.9488 44.5939 26 49.5 26Z" fill="#C18EF3"/>
<path d="M50.9972 36.3128C55.1227 36.6831 58.167 40.3277 57.7967 44.4532C57.6733 45.8284 58.6881 47.0433 60.0633 47.1667C61.4384 47.2901 62.6533 46.2753 62.7767 44.9001C63.3938 38.0242 58.3201 31.9499 51.4441 31.3328C50.0689 31.2094 48.8541 32.2242 48.7306 33.5994C48.6072 34.9745 49.622 36.1894 50.9972 36.3128Z" fill="#8B32EA"/>
<path d="M59.5 64.9961L58.6804 68.5541C58.3746 69.8725 57.6561 71.059 56.6293 71.9409C55.6026 72.8227 54.3213 73.354 52.9718 73.4573L52.4829 73.4771H46.5171C45.163 73.4771 43.8442 73.0448 42.7529 72.2432C41.6615 71.4416 40.8546 70.3125 40.4496 69.0204L40.3196 68.5484L39.5 64.9961H59.5Z" fill="#8B32EA"/>
</svg>
