<svg width="100" height="100" viewBox="0 0 100 100" fill="none" xmlns="http://www.w3.org/2000/svg">
<g id="Group 1171274940">
<rect id="Rectangle 7" width="100" height="100" rx="50" fill="#F7EBFC" fill-opacity="0.6"/>
<g id="Vector">
<path fill-rule="evenodd" clip-rule="evenodd" d="M49.2228 30.7419C50.5055 30.7419 51.5454 31.8511 51.5454 33.2194V43.129C51.5454 44.4973 50.5055 45.6065 49.2228 45.6065C47.94 45.6065 46.9002 44.4973 46.9002 43.129V33.2194C46.9002 31.8511 47.94 30.7419 49.2228 30.7419Z" fill="#8B32EA"/>
<path d="M26 49.9419C26 46.4732 26 44.7389 26.6751 43.414C27.2689 42.2486 28.2163 41.3011 29.3817 40.7073C30.7066 40.0323 32.441 40.0323 35.9097 40.0323H64.0903C67.559 40.0323 69.2934 40.0323 70.6183 40.7073C71.7837 41.3011 72.7311 42.2486 73.3249 43.414C74 44.7389 74 46.4732 74 49.9419V67.2839C74 70.7526 74 72.4869 73.3249 73.8118C72.7311 74.9772 71.7837 75.9247 70.6183 76.5185C69.2934 77.1936 67.559 77.1936 64.0903 77.1936H35.9097C32.441 77.1936 30.7066 77.1936 29.3817 76.5185C28.2163 75.9247 27.2689 74.9772 26.6751 73.8118C26 72.4869 26 70.7526 26 67.2839V49.9419Z" fill="#C18EF3"/>
<path fill-rule="evenodd" clip-rule="evenodd" d="M43.3419 51.8C43.3419 50.4317 42.2328 49.3226 40.8645 49.3226C39.4962 49.3226 38.3871 50.4317 38.3871 51.8V53.0387C38.3871 54.407 39.4962 55.5161 40.8645 55.5161C42.2328 55.5161 43.3419 54.407 43.3419 53.0387V51.8ZM58.2064 49.3226C56.8382 49.3226 55.729 50.4317 55.729 51.8V53.0387C55.729 54.407 56.8382 55.5161 58.2064 55.5161C59.5747 55.5161 60.6839 54.407 60.6839 53.0387V51.8C60.6839 50.4317 59.5747 49.3226 58.2064 49.3226ZM40.4037 62.3845C41.5998 61.2568 42.9613 61.7572 44.0688 62.6186C44.2554 62.7637 44.5735 62.9854 45.0289 63.2163C45.9291 63.673 47.4054 64.1871 49.5355 64.1871C51.6656 64.1871 53.1419 63.673 54.042 63.2163C54.4975 62.9854 54.8156 62.7637 55.0022 62.6186C56.1097 61.7572 57.4712 61.2568 58.6672 62.3845C59.697 63.3554 59.6648 65.005 58.6821 65.9767C58.6425 66.0158 58.5927 66.0636 58.5324 66.119C58.4119 66.2295 58.2496 66.37 58.0442 66.5297C57.6334 66.8492 57.0491 67.2468 56.2835 67.6353C54.7417 68.4173 52.5018 69.1419 49.5355 69.1419C46.5691 69.1419 44.3293 68.4173 42.7875 67.6353C42.0218 67.2468 41.4375 66.8492 41.0268 66.5297C40.8214 66.37 40.659 66.2295 40.5386 66.119C39.4835 65.1508 39.2767 63.4471 40.4037 62.3845Z" fill="#8B32EA"/>
<path d="M49.2258 23C45.8052 23 43.0323 25.773 43.0323 29.1935C43.0323 32.6141 45.8052 35.3871 49.2258 35.3871C52.6464 35.3871 55.4194 32.6141 55.4194 29.1935C55.4194 25.773 52.6464 23 49.2258 23Z" fill="#8B32EA"/>
</g>
</g>
</svg>
